# xmcd
#
# Track frame offsets:
#	150
#	14172
#	30733
#	43860
#	59007
#	76641
#	94952
#	111109
#	130450
#	150627
#	171180
#	186582
#	202182
#	221154
#	239039
#	251414
#	266471
#	282203
#
# Disc length: 3989 seconds
#
# Revision: 1
# Processed by: cddbd v1.5.1PL0 Copyright (c) Steve Scherf et al.
# Submitted via: audiograbber 1.83.01
#
DISCID=170f9312
DTITLE=Various Artist - Дворовый хит 3. (2004)
DYEAR=1900
DGENRE=
TTITLE0=Николай Бурлак. - Кордильеры.
TTITLE1=Аляска. - Достали.
TTITLE2=Валдай. - Не ахай.
TTITLE3=Подруги. - Армия.
TTITLE4=Виктор Петлюра. - Мадам.
TTITLE5=Татьяна Снопова. - 90-60-90.
TTITLE6=Иван-Иван. - Молодая вольная.
TTITLE7=Николай Трубач. - Березы.
TTITLE8=Русское Disco. - Школьная история.
TTITLE9=Комиссар. - Королева снежная.
TTITLE10=Ирина Ежова. - Колечко.
TTITLE11=Вячеслав Быков. - До рассвета.
TTITLE12=Гера Грач. - С трапа я сойду.
TTITLE13=Пахом. - Красный май.
TTITLE14=Абдула. - Катенька.
TTITLE15=Куклы напрокат. - Мальчик-красавчик.
TTITLE16=Иван Московский. - Годы.
TTITLE17=Шан-хай. - Кукушка.
EXTD=
EXTT0=
EXTT1=
EXTT2=
EXTT3=
EXTT4=
EXTT5=
EXTT6=
EXTT7=
EXTT8=
EXTT9=
EXTT10=
EXTT11=
EXTT12=
EXTT13=
EXTT14=
EXTT15=
EXTT16=
EXTT17=
PLAYORDER=
